<?xml version="1.0" encoding="utf-8"?>
<!-- Generator: Adobe Illustrator 17.1.0, SVG Export Plug-In . SVG Version: 6.00 Build 0)  -->
<!DOCTYPE svg PUBLIC "-//W3C//DTD SVG 1.1//EN" "http://www.w3.org/Graphics/SVG/1.1/DTD/svg11.dtd">
<svg version="1.1" id="Layer_1" xmlns="http://www.w3.org/2000/svg" xmlns:xlink="http://www.w3.org/1999/xlink" x="0px" y="0px"
	 viewBox="0 0 274.5 91.5" enable-background="new 0 0 274.5 91.5" xml:space="preserve">
<path fill="#FFFFFF" d="M266.8,26.8h-2v4.7h2c1.1,0,2.1-0.8,2.1-1.7v-1.2C268.9,27.5,268,26.8,266.8,26.8z"/>
<g>
	<g>
		<path fill="#FFFFFF" d="M80,53.8H66.1v-4.8c0-3.1-0.1-5-0.4-5.7c-0.3-0.8-0.9-1.2-1.9-1.2c-0.9,0-1.4,0.3-1.7,1
			c-0.3,0.7-0.5,2.4-0.5,5.1v25.6c0,2.4,0.2,4,0.5,4.7c0.3,0.8,0.9,1.1,1.8,1.1c1,0,1.7-0.4,2.1-1.3c0.4-0.9,0.5-2.5,0.5-5v-6.3
			h-2.8v-8.1H80v28.7h-8.7L70,83.7c-0.9,1.6-2.1,2.9-3.6,3.7c-1.4,0.8-3.1,1.2-5.1,1.2c-2.3,0-4.5-0.6-6.6-1.7
			c-2-1.1-3.6-2.5-4.6-4.2c-1.1-1.7-1.7-3.4-2-5.3c-0.3-1.8-0.4-4.6-0.4-8.3V53.3c0-5.1,0.3-8.8,0.8-11.1c0.5-2.3,2.1-4.4,4.7-6.3
			c2.6-1.9,6-2.9,10.1-2.9c4.1,0,7.4,0.8,10.1,2.5c2.7,1.7,4.4,3.7,5.2,6c0.8,2.3,1.2,5.6,1.2,10V53.8z"/>
		<path fill="#FFFFFF" d="M113.7,34.1l-10.1,34.1v19.3H90.7V68.2l-9.8-34.1h12.8c2,10.4,3.1,17.4,3.4,21c0.8-5.7,2.1-12.7,3.9-21
			H113.7z"/>
		<path fill="#FFFFFF" d="M159.1,34.1v53.4H147l0-36l-4.8,36h-8.6l-5.1-35.2l0,35.2h-12.1V34.1h18c0.5,3.2,1.1,7,1.6,11.3l2,13.6
			l3.2-24.9H159.1z"/>
		<path fill="#FFFFFF" d="M172.8,76.6v10.9h-10.1V76.6H172.8z"/>
		<path fill="#FFFFFF" d="M207.7,34.1v35.7c0,4-0.1,6.9-0.4,8.5c-0.3,1.6-1,3.3-2.3,5c-1.3,1.7-3,3-5.1,3.9
			c-2.1,0.9-4.6,1.3-7.5,1.3c-3.2,0-6-0.5-8.4-1.6c-2.4-1.1-4.3-2.4-5.5-4.1c-1.2-1.7-1.9-3.5-2.1-5.4c-0.2-1.9-0.3-5.8-0.3-11.9
			V34.1h13.9v40c0,2.3,0.1,3.8,0.4,4.5c0.3,0.6,0.8,1,1.5,1c0.9,0,1.4-0.4,1.7-1.1c0.3-0.7,0.4-2.4,0.4-5.1V34.1H207.7z"/>
		<path fill="#FFFFFF" d="M225.7,34.1v53.4h-13.9V34.1H225.7z"/>
	</g>
	<rect x="45.5" y="26.7" fill="#FFFFFF" width="183.8" height="4.7"/>
	<path fill="#FFFFFF" d="M8.6,26.7H6.4c-1,0-1.9,0.7-1.9,1.6v1.5c0,0.9,0.8,1.6,1.9,1.6h2.2V26.7z"/>
	<g>
		<path fill="#FFFFFF" d="M43.4,50.5c0,2.7-2.2,4.9-4.9,4.9l0,0c-2.7,0-4.9-2.2-4.9-4.9v-43c0-2.7,2.2-4.9,4.9-4.9l0,0
			c2.7,0,4.9,2.2,4.9,4.9V50.5z"/>
		<path fill="#FFFFFF" d="M31.4,48.1c0,2.4-2.2,4.3-4.9,4.3l0,0c-2.7,0-4.9-1.9-4.9-4.3V10c0-2.4,2.2-4.3,4.9-4.3l0,0
			c2.7,0,4.9,1.9,4.9,4.3V48.1z"/>
		<path fill="#FFFFFF" d="M19.3,44.3c0,1.9-2.2,3.5-4.9,3.5l0,0c-2.7,0-4.9-1.6-4.9-3.5V13.8c0-1.9,2.2-3.5,4.9-3.5l0,0
			c2.7,0,4.9,1.6,4.9,3.5V44.3z"/>
	</g>
	<g>
		<path fill="#FFFFFF" d="M231.3,7.5c0-2.7,2.2-4.9,4.9-4.9l0,0c2.7,0,4.9,2.2,4.9,4.9v43c0,2.7-2.2,4.9-4.9,4.9l0,0
			c-2.7,0-4.9-2.2-4.9-4.9V7.5z"/>
		<path fill="#FFFFFF" d="M243.4,10c0-2.4,2.2-4.3,4.9-4.3l0,0c2.7,0,4.9,1.9,4.9,4.3v38.1c0,2.4-2.2,4.3-4.9,4.3l0,0
			c-2.7,0-4.9-1.9-4.9-4.3V10z"/>
		<path fill="#FFFFFF" d="M255.4,13.8c0-1.9,2.2-3.5,4.9-3.5l0,0c2.7,0,4.9,1.6,4.9,3.5v30.5c0,1.9-2.2,3.5-4.9,3.5l0,0
			c-2.7,0-4.9-1.6-4.9-3.5V13.8z"/>
	</g>
</g>
</svg>
