<?xml version="1.0" encoding="utf-8"?>
<!-- Generator: Adobe Illustrator 17.1.0, SVG Export Plug-In . SVG Version: 6.00 Build 0)  -->
<!DOCTYPE svg PUBLIC "-//W3C//DTD SVG 1.1//EN" "http://www.w3.org/Graphics/SVG/1.1/DTD/svg11.dtd">
<svg version="1.1" id="Layer_1" xmlns="http://www.w3.org/2000/svg" xmlns:xlink="http://www.w3.org/1999/xlink" x="0px" y="0px"
	 viewBox="0 0 72 72" enable-background="new 0 0 72 72" xml:space="preserve">
<path fill="#231F20" stroke="#231F20" stroke-width="0.7068" stroke-miterlimit="10" d="M18,47.9"/>
<g>
	<path fill="#231F20" d="M39.7,20.5c0,0-1.5,0.6-1.2-3.8c0,0-0.8-3.8,1.9-3.4c0,0,5-1,3.8,5.2c0,0-1.4,2.2,0.2,2.6
		c0,0,4.4,1,3.7,6.6c0,0,0.3,3.8,0.5,5.1c0,0,0.8,5.4-1.1,7.6c0,0,0.8,3.9-1.6,3.4c0,0-1.8,0.1-1.7-1.3c0,0,0.1-0.3,0.6,0
		c0,0,1.1,0.1,0.3-0.6c0,0-1.5,0.4-1-0.8c0,0,0.3-0.2,1-0.2c0,0,2.1-1.6,1.1-4c0,0-1.8-3.2-0.9-7.3c0,0-1.4,1.1-2.2,3.6
		c0,0-0.6,3.5-0.5,4.5c0,0-0.9,3.6-2.8,2.1c0,0-3.3-2-4.4-0.8c0,0-2.2,2-0.3,3.8c0,0,1.4,1.7-1.6,5.8c0,0-0.4-1.1-2.8-1
		c0,0-0.4-11.2,1.4-11.4c0,0,3-2.9,1.2-3.5c0,0,2.4-3.2,1.8-7.4c0,0-0.5-3.8,4.6-3.9C39.9,21.3,40.4,20.7,39.7,20.5z"/>
	<path fill="#231F20" d="M34.1,26.4c0,0,1,2.1-1.5,5h-2.7c0,0,2.7-2.4,3.3-4.7C33.3,26.7,33.4,25.6,34.1,26.4z"/>
	<path fill="#231F20" d="M31.9,32.7h-5c0,0-6.8-0.9-6,11.8c0,0,2.7,0.3,3.1,0.9c0,0,2.6-4.9,1.2-6.8c0,0-0.5-0.6,1.2-0.8
		c0.1,0,0.1,0,0.2,0c1.9-0.2,4.2-0.5,6-4.2C32.5,33.6,32.8,32.7,31.9,32.7z"/>
	<path fill="#231F20" d="M33.4,52.3v0.2c0,1.1-0.5,2.1-1.1,2.6c-0.1,0.1-0.3,0.2-0.5,0.3l-2-0.8h0l-13.2-5h0l-0.6-0.2
		c-0.5-0.4-0.8-1.2-0.8-2.2c0-1.3,0.6-2.4,1.4-2.4l0.6,0.2l14,4.2h0l1.2,0.3h0C32.9,50,33.4,51,33.4,52.3z"/>
	<path fill="#231F20" d="M19.4,52l3.5,1.4c0,0-1.4,3.4-5.5,1.8c0,0-0.9-0.8,0.2-1.7C17.6,53.5,19.1,52.4,19.4,52z"/>
	<path fill="#231F20" d="M28,55.2l3.5,1.4c0,0-1.4,3.4-5.5,1.8c0,0-0.9-0.8,0.2-1.7C26.2,56.7,27.7,55.5,28,55.2z"/>
	<path fill="#231F20" d="M44.9,19.7c0,0,4.8,0.9,4.7,7.9c0,0,3.7-9.1,0-10.2C49.6,17.5,45.3,15.3,44.9,19.7z"/>
	<path fill="#231F20" d="M42.2,44.4c0,0,2.2-0.1,0.4-2.2l-5.2-2.2c0,0-2.3-0.5-1.3,1.8L42.2,44.4z"/>
	<path fill="#231F20" d="M44.3,44.4l-0.8,1.7l-6.4-2.6l-2,4.9l0.2,6.2l8.1,3.1l2.8-2.8V44.7L44.3,44.4z M43.3,54.6l-6.2-2v-3
		l1.1-3.5l5.1,2.3V54.6z"/>
</g>
<path opacity="5.000000e-02" fill="#FFFFFF" d="M57.4,67H13.9C8.2,67,3.5,62.3,3.5,56.6V7.3h53.9c5.7,0,10.4,4.7,10.4,10.4v38.9
	C67.8,62.3,63.2,67,57.4,67z"/>
</svg>
