<?xml version="1.0" encoding="utf-8"?>
<!-- Generator: Adobe Illustrator 17.1.0, SVG Export Plug-In . SVG Version: 6.00 Build 0)  -->
<!DOCTYPE svg PUBLIC "-//W3C//DTD SVG 1.1//EN" "http://www.w3.org/Graphics/SVG/1.1/DTD/svg11.dtd">
<svg version="1.1" id="Layer_1" xmlns="http://www.w3.org/2000/svg" xmlns:xlink="http://www.w3.org/1999/xlink" x="0px" y="0px"
	 viewBox="0 0 72 72" enable-background="new 0 0 72 72" xml:space="preserve">
<g id="Layer_1_1_">
	<path opacity="0.3" fill="#FFFFFF" d="M59,67.7H12.2c-3.6,0-6.5-2.9-6.5-6.5V7.8H59c3.6,0,6.5,2.9,6.5,6.5v46.9
		C65.5,64.8,62.6,67.7,59,67.7z"/>
	
		<image display="none" overflow="visible" enable-background="new    " width="450" height="470" xlink:href="330C8CFD0F9DDF40.jpeg"  transform="matrix(1 0 0 1 -189 -199)">
	</image>
	<path fill="none" d="M37.9,22.8c0,1.3-0.9,2.4-2,2.4c-1.2-0.1-2.1-1.1-2-2.4s0.9-2.4,2-2.4S37.9,21.5,37.9,22.8z"/>
	<rect x="-95.5" y="3.3" fill="#D8D8D8" width="72" height="72"/>
	<g>
		<path d="M-59.3,20.8v1.5c0,0-1.1-0.3,0,1.6h0.3V26c0,0-2.3-0.6-2.3,1.8c0,0-3.1,0.9-3.4,2.8c0,0-1.8-0.9-2.8-2v-1.5
			c0,0,1.2-1.2,0.4-2.1c0,0,0.1-0.7-1-0.7c0,0-1.2-0.1-1.4,0.5c0,0-0.2,1.7,0.5,2c0,0-1.3,7.8,2.2,7.8h4.8c0,0,0.4,2.3,1.3,2.8
			c0,0-0.1,2.4-1.1,2.9c0,0-4.6,1.8-4.5,6.1c0,0,0.5,1,0.4,2.7c0,0-1.1,1.2,0.2,4l0.5,3.4l-0.9,1.2c0.9-1.2-2.3,2.5-2.8,3.4
			c0,0,0.8,1.8,4.2,0.7c0,0,0.3-0.9,1.1-1.5c0,0,1.4-0.6,0.4-2c0,0,0.1-0.7-0.2-1.4c0,0-0.3-2.1-0.2-2.2c0,0,1.5-2.6,0-5.7l0.2-0.7
			c0,0,3.8-1.2,5.2-2.5c0,0,0.2-0.3,0.9-0.3L-57.5,21h-1.8V20.8z"/>
		<path d="M-55.6,20.8v1.5c0,0,1.1-0.3,0,1.6h-0.3V26c0,0,4.7,0.5,4.7,3c0,0,2.2-0.2,2.6,1.6c0,0,0.3-1.1,1.2-2.2v-1.5
			c0,0-1.3-1.2-0.4-2.1c0,0-0.1-0.7,1-0.8c0,0,1.2-0.1,1.4,0.5c0,0,0.3,1.7-0.5,2.1c0,0,1.4,7.8-2.1,7.8l-4.8,0.1
			c0,0-0.4,2.3-1.3,2.8c0,0,0.2,2.4,1.1,2.9c0,0,4.6,1.7,4.6,6c0,0-0.4,1-0.3,2.7c0,0,1.1,1.2-0.1,4l-0.4,3.4l0.9,1.2
			c-0.9-1.2,2.3,2.5,2.9,3.3c0,0-0.8,1.8-4.2,0.7c0,0-0.3-0.9-1.1-1.5c0,0-1.4-0.6-0.5-2c0,0-0.2-0.7,0.2-1.4c0,0,0.3-2.1,0.1-2.2
			c0,0-1.5-2.5-0.1-5.7l-0.2-0.7c0,0-3.9-1.1-5.2-2.4c0,0-0.2-0.3-0.9-0.3l-0.3-24.5H-55.6z"/>
	</g>
	<g>
		<path fill="#24201E" d="M33,21.6c0.3-1.5,0.8-2,1.9-2.2c1.4-0.2,2.4,0.5,2.6,1.8c0.1,0.8,0.6,1.6,0.3,2.4
			c-0.1,0.2-0.2,0.4-0.2,0.6c-0.4,1.6,0,2.3,1.7,2.6c0.5,0.1,1.1,0.1,1.5,0.3c0.5,0.2,1.1,0.4,1.4,0.8c0.7,0.7,1.2,1.6,1.8,2.4
			c0.2-0.1,0.3-0.1,0.4-0.2c0.4-0.3,1.1-0.4,1-1.1c-0.1-0.8,0.6-1.8-0.4-2.5c-0.7-0.5-0.6-1.3-0.2-2c0.2-0.1,0.4-0.2,0.6-0.3
			c0.2,0,0.3-0.1,0.5-0.1c0.3,0.1,0.5,0.1,0.8,0.2c0.2,0.1,0.4,0.2,0.5,0.3c0.2,0.2,0.3,0.4,0.5,0.6v0.1c0,0.6-0.1,1.2-0.1,1.8
			c0,0.7,0,1.5,0,2.2c0.1,1.9-0.2,3.7-1.4,5.2c-0.8,1-1,1.1-2.2,0.8c-1-0.2-1.9-0.5-3-0.7c-0.3,1.3-0.6,2.7-0.9,4
			c-0.2,1.1,0.1,2,1.3,2.6c1.4,0.7,2.3,1.8,2.6,3.4c0.1,0.7,0.6,1.4,0.9,2c0,0.3,0,0.5,0,0.8c-0.1,1-0.2,2,0.2,3
			c0.4,0.9,0.1,1.8-0.1,2.7c-0.2,0.9-0.4,1.7-0.6,2.6c-0.1,0.4,0,0.6,0.3,0.9c0.4,0.3,0.7,0.7,0.9,1.1c0.5,1,0.9,1.9,1.8,2.6
			c0.6,0.5,0.4,1-0.1,1.4c-1,0.1-2,0.2-2.9,0.3c-0.1,0-0.2-0.1-0.2-0.1c-0.7-1-1.8-1.6-2.6-2.4c0.2-1,0.1-2.1,0.7-3
			c0.2-0.3,0.1-0.7,0-1c-0.2-0.6-0.4-1.3-0.7-1.8c-0.5-0.9-0.7-1.9-0.6-2.9c0-0.4,0-0.8,0-1.2c0-0.3,0-0.6,0-0.9
			c-0.2-0.3-0.4-0.5-0.6-0.8c-0.3-0.1-0.6-0.2-0.9-0.4c-0.1-0.1-0.3-0.1-0.4-0.2l0,0c-0.2-0.1-0.3-0.1-0.5-0.2
			c-1.2-0.6-1.7-2.1-3.1-2.5c-0.2-0.1-0.4-0.6-0.5-0.9c-0.2-0.4-0.3-0.8-0.5-1.2c-0.5-1-1.2-1.6-2.2-1.9c-0.3-0.1-0.6-0.2-1.1-0.3
			c1-1.6,0.8-3-0.1-4.5c-0.3-0.4-0.4-1-0.4-1.5c0-1.8-0.5-3.5-1.7-4.9c-0.4-0.5-0.3-0.9,0-1.3c0.5-0.7,1.2-1.1,2-1.4
			c0.6-0.2,1.2-0.4,1.7-0.6c0.6-0.2,0.8-0.6,0.6-1.2C33,23.9,32.6,22.8,33,21.6z M36,37.2c-0.1,0-0.1-0.1-0.2-0.1
			C35.9,37.1,35.9,37.1,36,37.2c0.1,0,0.1,0.1,0.2,0.1C36.1,37.2,36.1,37.2,36,37.2z M38.6,39.8c-0.1-0.1-0.2-0.2-0.3-0.3
			c-0.2-0.2-0.4-0.5-0.6-0.7c-0.1,0.1-0.1,0.1-0.2,0.2c0.2,0.2,0.5,0.4,0.7,0.6C38.5,39.6,38.6,39.7,38.6,39.8
			c0.1,0.1,0.2,0.2,0.3,0.3c0.1,0,0.1,0.1,0.2,0.1c-0.1,0-0.1-0.1-0.2-0.1C38.8,40,38.7,39.9,38.6,39.8z M40,41.1
			c-0.1,0-0.1-0.1-0.2-0.1C39.8,41.1,39.9,41.1,40,41.1c0.1,0.1,0.2,0.2,0.3,0.3s0.2,0.2,0.3,0.3c0.1,0,0.1,0.1,0.2,0.1
			c-0.1,0-0.1-0.1-0.2-0.1c-0.1-0.1-0.2-0.2-0.3-0.3C40.1,41.3,40.1,41.2,40,41.1z M32.6,33.4c-0.1,0.1-0.2,0.2-0.2,0.3l0.1,0.2
			c0.1,0,0.2-0.1,0.3-0.1C32.8,33.7,32.7,33.6,32.6,33.4z M33.9,34.8c-0.1-0.1-0.2-0.2-0.3-0.2l-0.2,0.1c0,0.1,0.1,0.2,0.1,0.3
			C33.6,35,33.7,34.9,33.9,34.8z M35,35.9c-0.1-0.1-0.2-0.2-0.3-0.2l-0.2,0.1c0,0.1,0,0.2,0.1,0.3C34.7,36.1,34.8,36,35,35.9z
			 M41.2,42.3L41.2,42.3L41.2,42.3L41.2,42.3z"/>
		<path fill="#24201E" d="M27,43.9c0.6-0.5,1.3-1.1,1.9-1.6c1.4-1,3-0.9,4.2,0.3c0.7,0.7,1.1,1.7,1.3,2.7c0.1,0.5-0.1,0.9-0.5,1.1
			c-0.7,0.4-1.4,0.7-2.1,1.1c-0.7,0.4-1.5,0.7-2.2,1.1c-0.4,0.2-0.3,0.5,0,0.8l0,0c0.1,0.3,0.3,0.5,0.4,0.8c0,0.1,0.1,0.2,0.1,0.3
			c0,0.6,0.1,1.2,0.1,1.8c0,0.3-0.1,0.5-0.1,0.8c-0.1,0.2-0.1,0.4-0.2,0.6c0,0.1-0.1,0.2-0.1,0.3c-0.1,0.2-0.2,0.4-0.3,0.5l0,0
			c-0.1,0.2-0.1,0.3-0.2,0.5c0,0.6,0,1.2,0.1,1.9c0.1,0.1,0.1,0.1,0.2,0.2l0,0c0.1,0.1,0.1,0.2,0.2,0.3c0,0.1,0.1,0.2,0.1,0.3
			c0.1,0.4,0.1,0.9,0.2,1.3c0.2,0.8-0.2,1.2-0.8,1.6c-0.5,0.3-0.9,0.8-1.3,1.2c-0.3,0.2-0.6,0.6-1,0.6c-0.8,0-1.6,0-2.3-0.2
			c-0.9-0.3-1-0.9-0.4-1.7c0.9-1.1,1.6-2.3,2.5-3.3c0.5-0.6,0.5-1.1,0.4-1.7c-0.1-0.5-0.2-1-0.3-1.5c0-0.1-0.1-0.2-0.1-0.3
			s0-0.2-0.1-0.2c-0.1-0.3-0.2-0.5-0.3-0.8c0-0.2-0.1-0.4-0.1-0.5c0-0.2-0.1-0.4-0.1-0.5c0.1-0.7,0.2-1.4,0.3-2.1
			c0.1-0.1,0.1-0.2,0.2-0.2c0-0.4,0-0.7,0-1.1c-0.1-0.2-0.1-0.4-0.2-0.5C26.5,46.3,26.2,45,27,43.9z"/>
		<path fill="#282523" d="M24.9,24.2c1.1,1,1.3,1.6,0.6,2.8c-0.3,0.5-0.4,1-0.1,1.5c0.3,0.7,0.7,1.5,1.1,2.3
			c1.3-1.4,1.3-1.4,2.4,0.2c0.6,0.9,0.7,2,0.7,3c0,0.5-0.2,0.8-0.8,0.8c-1.1,0-2.2,0.1-3.3,0.2c-1.6-0.6-2.2-1.9-2.1-3.5
			c0-0.7,0-1.4,0.1-2.1c0.1-1.1,0-2.3-0.4-3.3c0-0.3,0-0.5,0-0.8c0-0.2,0-0.4,0.1-0.5c0.4-0.2,0.7-0.3,1.1-0.5
			C24.4,24.3,24.6,24.2,24.9,24.2z"/>
		<path fill="#F5EAD3" d="M30.3,52.2c0-0.6-0.1-1.2-0.1-1.8c0-0.1-0.1-0.2-0.1-0.3c-0.1-0.3-0.3-0.5-0.4-0.8c0.2,0,0.6,0,0.6-0.1
			c0.5-1.1,1.4-1,2.3-1c0.9,0,1.8,0.3,2.6,0.2c1.6-0.3,3.3,0.2,4.8-0.5c0.3,0.4,0.2,0.7,0,1.1c-0.3,0-0.5,0-0.8,0
			c-0.5,0-1.1,0-1.6,0c-1.9,0-3.9,0-5.8,0c-0.4,0-0.8-0.1-0.8,0.5s0.2,0.9,0.8,0.9c0,0.1,0,0.1,0.1,0.2c0,2.8,0,5.6,0,8.4
			c0,0.2-0.1,0.4,0,0.5c0.2,0.2,0.4,0.5,0.6,0.5s0.5-0.3,0.6-0.5s0-0.4,0-0.6c0.1-1.5,0.2-3.1,0.2-4.6c0-1.1-0.1-2.3-0.1-3.4
			c0.2-0.7,0.8-0.4,1.2-0.6c1,0,2,0.1,2.9,0.1c0.1,0.1,0.2,0.2,0.3,0.3c0.1,2.9,0.2,5.8,0.2,8.7c0,0.4-0.1,0.8,0.5,0.8
			s0.6-0.4,0.6-0.8c0-1.6,0-3.2-0.1-4.7c0-0.5,0.1-1.1,0.1-1.6c1.1,0.4,1,0.4,0.8,1.4c-0.2,0.9-0.2,1.9-0.4,2.8c0,0.6-0.1,1.1,0,1.7
			c0.1,0.8-0.2,1.3-0.8,1.7c-0.2,0.1-0.4,0.2-0.5,0.3c-0.2-0.1-0.4-0.2-0.5-0.3c-0.1-0.2-0.2-0.4-0.3-0.5c-0.1-0.2-0.2-0.4-0.3-0.5
			c-0.1-2.6-0.2-5.2-0.2-7.8c0-0.6-0.3-0.7-0.8-0.7c-0.4,0-0.8,0-1.2,0c-0.9,0-0.9,0-0.9,1.1c0,2.2,0,4.3,0,6.5c0,0.5-0.2,1-0.4,1.5
			c-0.3,0.5-0.8,0.6-1.4,0.5c-0.6-0.2-0.8-0.6-0.8-1.2c0-2.4,0-4.8,0-7.3c0-0.6,0-1.1-0.6-1.7C30.5,51.2,30.4,51.7,30.3,52.2z"/>
		<path fill="#C98441" d="M22,24.5c0,0.2-0.1,0.5-0.1,0.7c-0.1,0-0.1,0-0.2,0c-0.4,0-0.9-0.1-0.7,0.6c0,1.3,0,2.6,0,3.9
			c-0.1,0.3-0.2,0.5-0.2,0.8c-0.5,0.4-1.1,0.5-1.5-0.1c0-0.2-0.1-0.3-0.1-0.5c0-0.3,0-0.5,0-0.8c0-2.5,0-5.1,0.1-7.6
			c0-0.6,0-1.3,0-1.9c0-0.2,0-0.3,0-0.5c0.1-0.2,0.1-0.4,0.2-0.5c0.5-0.5,0.9-0.3,1.4,0c0.1,0.3,0.2,0.5,0.2,0.8
			c0,0.7,0,1.4,0.1,2.1c0,0.2-0.1,0.4-0.1,0.5c0,0.5,0,1,0,1.6s0.4,0.6,0.8,0.6C21.8,24.3,21.9,24.4,22,24.5z"/>
		<path fill="#CA7D33" d="M51.3,31c-0.2-0.1-0.4-0.1-0.6-0.2c-0.1-0.1-0.2-0.1-0.2-0.2l0,0c-0.1-0.2-0.2-0.5-0.3-0.7
			c0-0.2,0-0.5,0-0.7c0-0.4,0-0.9,0-1.3c0-0.5,0-1,0-1.5c-0.1-0.4-0.1-0.8-0.2-1.1c0-0.3,0-0.6,0-0.9l0,0c0.1-0.1,0.1-0.2,0.2-0.3
			l0,0c0.1-0.3,0.2-0.5,0.2-0.8c0-1,0-2,0-3c0-0.3,0.1-0.7,0.2-1c0.2-0.6,0.5-0.4,0.9-0.2c0.1,0.2,0.2,0.4,0.3,0.5
			c0,0.2,0.1,0.3,0.1,0.5c0,0.5,0,1.1-0.1,1.6c0,2.7,0,5.4,0,8.1l0.1,0.1c0,0.1,0,0.3,0,0.4c-0.2,0.2-0.3,0.4-0.5,0.6
			C51.5,30.9,51.4,30.9,51.3,31z"/>
		<path fill="#C98441" d="M54.5,29c-0.4,0-0.9,0-1.3,0l0,0c0-0.6-0.1-1.1-0.1-1.7c0-2.1,0-4.1-0.1-6.2c0-0.2,0.1-0.5,0.1-0.7
			c0.5,0,1,0,1.5,0c0.1,0.3,0.1,0.5,0.2,0.8c0,0.3,0,0.5,0,0.8c0,0.1,0,0.2,0,0.3c0,0.4,0,0.9,0,1.3c0,0.5,0,1.1,0,1.6
			c0,0.2,0,0.4,0,0.5c0,0.5,0,1.1,0,1.6c0,0.2,0,0.4,0.1,0.5c0,0.3-0.1,0.5-0.1,0.8C54.7,28.6,54.6,28.8,54.5,29z"/>
		<path fill="#C98441" d="M57.6,26.8c-0.2,0.1-0.3,0.2-0.5,0.3c-0.8,0-1.2-0.4-1.3-1.1c0-0.3,0-0.5,0-0.8c0-0.9,0.1-1.8,0.1-2.7
			c0.1-0.2,0.1-0.3,0.2-0.5c0.5,0.1,1,0.2,1.5,0.3c0,0.4,0,0.9,0,1.3c0,0.6,0.4,0.6,0.8,0.6c0.1,0.1,0.2,0.2,0.3,0.2
			c0,0.3,0,0.7-0.5,0.8c-0.6,0-0.7,0.4-0.6,0.9C57.7,26.3,57.6,26.6,57.6,26.8z"/>
		<path fill="#EFD7AE" d="M19.1,19.7c0,0.6,0,1.3,0,1.9c0,2.5,0,5.1-0.1,7.6c-0.4-0.1-0.8-0.3-1.1-0.4c0-0.6,0.1-1.1,0.1-1.7
			c0-2,0-3.9,0.1-5.9c0.1-0.1,0.4-0.1,0.4-0.2c0.1-0.4,0.2-0.9,0.3-1.4C18.9,19.7,19,19.7,19.1,19.7z"/>
		<path fill="#C98441" d="M12.4,24.5c0.1,0,0.1-0.1,0.1-0.2c0.2,0,0.3,0,0.5,0c0.4,0,0.6-0.1,0.5-0.6c0.1-0.5,0.2-1,0.3-1.6
			c0.3,0,0.5-0.1,0.8-0.1c0.2,0.1,0.4,0.2,0.5,0.3c0,1.5,0,3,0,4.5c-0.1,0.1-0.2,0.2-0.3,0.3c-0.1,0-0.2,0-0.3,0
			c-0.2,0-0.5-0.1-0.7-0.1c-0.1-0.3-0.2-0.5-0.3-0.8c0-0.2,0-0.3,0-0.5c0.1-0.8-0.6-0.5-1-0.6c0-0.1-0.1-0.1-0.1-0.2
			C12.4,24.8,12.4,24.7,12.4,24.5z"/>
		<path fill="#C98441" d="M44.2,41.7c0-0.2,0-0.3-0.1-0.5c0.1-0.1,0.3-0.2,0.3-0.2c-0.4-1.1-0.1-2.2,0-3.4c0.1-0.4,0.1-0.7,0.6-0.6
			c0.5,0,0.5,0.4,0.5,0.8c0,0.7,0,1.4,0,2.1c0,0.4,0.1,0.7,0.2,1.1c0,0.4,0,0.9,0,1.3c-0.2,0.2-0.5,0.3-0.7,0.5
			C44.7,42.4,44.5,42,44.2,41.7z"/>
		<path fill="#CFA26E" d="M45.8,40.9c-0.1-0.4-0.2-0.7-0.2-1.1c0-0.7,0-1.4,0-2.1c0-0.3,0.1-0.7-0.5-0.8c-0.5,0-0.6,0.2-0.6,0.6
			c-0.2,1.1-0.4,2.2,0,3.4c0,0-0.2,0.2-0.3,0.2c-0.1-0.3-0.4-0.6-0.4-0.9c-0.1-0.9,0-1.7,0-2.6c0-0.9,0.5-1.3,1.4-1.2
			c0.2,0,0.6,0.3,0.6,0.5C46,38.2,46.2,39.6,45.8,40.9z"/>
		<path fill="#C1915B" d="M38.9,24.2c1,0,2,0,3,0c0.2,0,0.4,0,0.7,0c0.4,0,0.8-0.1,0.8,0.6c0,0.5-0.4,0.5-0.8,0.5
			c-1.1,0-2.1,0-3.2,0c-0.8,0-0.8,0-0.8-1C38.8,24.3,38.8,24.3,38.9,24.2z"/>
		<path fill="#C1915B" d="M32,24.2c0.2,0.6,0.1,1-0.7,1c-1.1,0-2.2,0-3.3,0c-0.2,0-0.5-0.2-0.7-0.4c0.2-0.2,0.4-0.6,0.7-0.6
			c1-0.1,2.1,0,3.1,0c0.2,0,0.4,0,0.7,0C31.8,24.2,31.9,24.3,32,24.2z"/>
		<path fill="#F5EAD3" d="M49.5,22.9c0,0,0.1,0,0.1-0.1c0.1-1.6,0.3-3.1,0.4-4.7l0,0c0.2,0,0.4,0,0.6,0.1c-0.1,0.4-0.4,0.9-0.4,1.3
			c0,1.5,0,2.9,0,4.4l0,0c-0.1,0.1-0.1,0.2-0.2,0.3l0,0c-0.3,0-0.5,0-0.8,0c0-0.2,0-0.4,0-0.6C49.3,23.4,49.4,23.2,49.5,22.9z"/>
		<path fill="#F5EAD3" d="M55.6,25.3c-0.2,0.1-0.3,0.2-0.5,0.2c-0.1,0-0.2,0-0.3,0c0-0.2,0-0.4,0-0.5c0.1-0.5,0.2-1,0.3-1.5
			c0,0-0.2-0.1-0.3-0.1c0-0.4,0-0.9,0-1.3c0.1,0,0.2,0,0.2,0c0.3,0,0.5,0,0.8,0c0.1,0,0.2,0,0.3,0c-0.1,0.2-0.1,0.3-0.2,0.5
			c-0.1,0.2-0.4,0.4-0.4,0.6C55.5,23.9,55.6,24.6,55.6,25.3z"/>
		<path fill="#C1915B" d="M50.3,23.9c0-1.5-0.1-2.9,0-4.4c0-0.5,0.2-0.9,0.4-1.3c0.1,0,0.1,0,0.2,0c0.2,0,0.3,0,0.5,0
			c0.1,0,0.1,0,0.2,0c0.1,0.1,0.1,0.2,0.2,0.2c0,0.1,0,0.2,0.1,0.3c-0.1,0.1-0.1,0.1-0.2,0.2c-0.4-0.2-0.7-0.4-0.9,0.2
			c-0.1,0.3-0.2,0.7-0.2,1c0,1,0,2,0,3C50.5,23.4,50.4,23.7,50.3,23.9z"/>
		<path fill="#CFA26E" d="M27.6,40.9c0.3,0.5,0.2,0.9-0.2,1.2c-0.4,0.3-0.8,0.6-1.2,0.9l0,0c-0.1-0.1-0.1-0.2-0.2-0.3
			c0-0.2,0-0.3,0-0.5c0.1-0.2,0.1-0.4,0.2-0.5c0.6,0.3,1,0.4,1.2-0.5C27.3,41.1,27.5,41,27.6,40.9z"/>
		<path fill="#F5EAD3" d="M57.6,26.8c0-0.3,0-0.5,0-0.8c0-0.5,0-0.8,0.6-0.9c0.5,0,0.4-0.4,0.5-0.8c0.1,0.1,0.4,0.2,0.4,0.2
			c-0.1,0.4-0.2,1-0.4,1C58,25.7,58.1,26.6,57.6,26.8z"/>
		<path fill="#CFA26E" d="M44.2,41.7c0.3,0.3,0.5,0.7,0.8,1c0.1,0.4,0.1,0.8,0.2,1.1C44.6,43.3,44.1,42.6,44.2,41.7z"/>
		<path fill="#C19569" d="M45.2,43.8c-0.1-0.4-0.1-0.8-0.2-1.1c0.2-0.2,0.5-0.3,0.7-0.5l0,0c0,0.2,0,0.3,0,0.5c0,0.7,0,1.3,0,2
			c-0.1,0-0.2,0-0.2,0.1C45.4,44.4,45.3,44.1,45.2,43.8z"/>
		<path fill="#F5EAD3" d="M58.5,24.2c-0.4,0-0.8,0-0.8-0.6c0-0.4,0-0.9,0-1.3C58.1,22.9,58.6,23.4,58.5,24.2z"/>
		<path fill="#CFA26E" d="M27.6,21.5c0.7,0.3,0.3,0.9,0.4,1.4c0,0.1,0,0.1,0,0.2c-0.2,0-0.5,0-0.7,0C27.4,22.6,27.5,22,27.6,21.5z"
			/>
		<path fill="#EFD7AE" d="M50,28.2c0.1-0.1,0.1-0.2,0.2-0.3c0,0.4,0,0.9,0,1.3c-0.4,0-0.7,0-0.7-0.5C49.9,28.7,50,28.5,50,28.2z"/>
		<path fill="#F5EAD3" d="M50,26.3c-0.3-0.2-0.7-0.4-1-0.5c0-0.2,0-0.3,0-0.5l0.1-0.1c0.1,0,0.3,0.1,0.4,0.1
			C49.7,25.6,49.8,26,50,26.3z"/>
		<path fill="#EFD7AE" d="M13.5,25.8c-0.3-0.1-0.7-0.2-1-0.3c0-0.1,0-0.2,0-0.3C12.9,25.3,13.5,25,13.5,25.8z"/>
		<path fill="#F5EAD3" d="M50.8,18.2c0-0.3,0-0.5,0-0.8c0.6,0,0.5,0.4,0.5,0.8C51.2,18.1,51,18.2,50.8,18.2z"/>
		<path fill="#F5EAD3" d="M30.2,58.9C30.1,58.4,30,58,30,57.5C30,58,30.1,58.4,30.2,58.9z"/>
		<path fill="#EFD7AE" d="M20.9,29.8c0.4,0.3,0.3,0.6,0,0.8c-0.1,0-0.2,0-0.2,0C20.8,30.3,20.9,30,20.9,29.8z"/>
		<path fill="#EFD7AE" d="M20.7,18.6c0.2,0.1,0.3,0.2,0.5,0.3c-0.1,0.2-0.2,0.3-0.2,0.5C20.9,19.2,20.8,18.9,20.7,18.6z"/>
		<path fill="#EFD7AE" d="M18.8,18.7c0.2,0,0.3,0,0.5,0c-0.1,0.2-0.1,0.4-0.2,0.5C19,19,18.9,18.8,18.8,18.7z"/>
		<path fill="#EFD7AE" d="M12.4,24.5c0,0.2,0,0.4,0,0.6c-0.1-0.1-0.3-0.2-0.4-0.2C12.1,24.7,12.3,24.6,12.4,24.5z"/>
		<path fill="#F5EAD3" d="M50,28.2c0.1,0.4-0.1,0.6-0.5,0.6c0-0.2,0-0.4,0-0.6C49.7,28.2,49.8,28.2,50,28.2z"/>
		<path fill="#EFD7AE" d="M54.5,29c0.1-0.2,0.2-0.3,0.3-0.5C55.1,28.9,55.1,28.9,54.5,29z"/>
		<path fill="#EFD7AE" d="M50.2,29.9c0.1,0.2,0.2,0.5,0.3,0.7c-0.1,0-0.1,0-0.2,0c-0.1,0-0.2-0.1-0.3-0.1
			C50.1,30.3,50.1,30.1,50.2,29.9z"/>
		<path fill="#EFD7AE" d="M51.9,30.9c-0.1,0-0.2,0-0.3,0c0.2-0.2,0.3-0.4,0.5-0.6c0,0.2,0,0.4,0.1,0.6C52,30.8,52,30.8,51.9,30.9z"
			/>
		<path fill="#F5EAD3" d="M29.4,54.9c0.1-0.2,0.1-0.3,0.2-0.5C29.6,54.5,29.5,54.7,29.4,54.9z"/>
		<path fill="#F5EAD3" d="M29.6,54.4c0.1-0.2,0.2-0.4,0.3-0.5C29.8,54,29.7,54.2,29.6,54.4z"/>
		<path fill="#F5EAD3" d="M30,53.6c0.1-0.2,0.1-0.4,0.2-0.6C30.1,53.2,30.1,53.4,30,53.6z"/>
		<path fill="#CFA26E" d="M45.8,42.7c0-0.2,0-0.3,0-0.5C45.8,42.4,45.8,42.5,45.8,42.7z"/>
		<path fill="#EFD7AE" d="M18.8,30.6c0.1-0.2,0.2-0.3,0.3-0.5c0,0.2,0.1,0.3,0.1,0.5C19,30.5,18.9,30.5,18.8,30.6z"/>
		<path fill="#F5EAD3" d="M29.9,57.3c-0.1-0.1-0.1-0.2-0.2-0.3C29.8,57.1,29.8,57.2,29.9,57.3z"/>
		<path fill="#F5EAD3" d="M29.7,57c-0.1-0.1-0.1-0.1-0.2-0.2C29.5,56.8,29.6,56.9,29.7,57z"/>
		<path fill="#EFD7AE" d="M50.5,30.7c0.1,0.1,0.2,0.1,0.2,0.2C50.7,30.8,50.6,30.7,50.5,30.7z"/>
		<path fill="#33302E" d="M38.4,39.6c-0.2-0.2-0.5-0.4-0.7-0.6c0.1-0.1,0.1-0.1,0.2-0.2C38,39.1,38.2,39.3,38.4,39.6L38.4,39.6z"/>
		<path fill="#3B3634" d="M32.6,33.4c0.1,0.2,0.2,0.3,0.2,0.3c0,0.1-0.2,0.1-0.3,0.1c0,0-0.1-0.1-0.1-0.2
			C32.4,33.7,32.5,33.6,32.6,33.4z"/>
		<path fill="#3B3634" d="M35,35.9c-0.2,0.1-0.3,0.2-0.4,0.1c-0.1,0-0.1-0.2-0.1-0.3c0,0,0.1-0.1,0.2-0.1
			C34.8,35.7,34.8,35.8,35,35.9z"/>
		<path fill="#E3E2E2" d="M41.1,49.7c0-0.3,0-0.6,0-0.9C41,49.1,41.1,49.4,41.1,49.7z"/>
		<path fill="#E3E2E2" d="M39.1,47.5c-0.2-0.1-0.3-0.1-0.5-0.2C38.8,47.3,39,47.4,39.1,47.5z"/>
		<path fill="#E3E2E2" d="M39.6,47.7c-0.1-0.1-0.3-0.1-0.4-0.2C39.3,47.6,39.5,47.6,39.6,47.7z"/>
		<polygon fill="#33302E" points="41.2,42.3 41.2,42.4 41.1,42.3 		"/>
		<path fill="#33302E" d="M40.5,41.7c0.1,0,0.1,0.1,0.2,0.1C40.6,41.7,40.6,41.7,40.5,41.7L40.5,41.7z"/>
		<path fill="#33302E" d="M40.5,41.7c-0.1-0.1-0.2-0.2-0.3-0.3l0,0C40.3,41.5,40.4,41.6,40.5,41.7L40.5,41.7z"/>
		<path fill="#33302E" d="M40,41.1c0.1,0.1,0.2,0.2,0.3,0.3l0,0C40.1,41.3,40,41.2,40,41.1L40,41.1z"/>
		<path fill="#33302E" d="M40,41.1c-0.1,0-0.1-0.1-0.2-0.1C39.8,41.1,39.9,41.1,40,41.1L40,41.1z"/>
		<path fill="#33302E" d="M38.9,40.1c0.1,0,0.1,0.1,0.2,0.1C39,40.2,39,40.1,38.9,40.1L38.9,40.1z"/>
		<path fill="#33302E" d="M38.9,40.1c-0.1-0.1-0.2-0.2-0.3-0.3l0,0C38.7,39.9,38.8,40,38.9,40.1L38.9,40.1z"/>
		<path fill="#33302E" d="M38.4,39.5c0.1,0.1,0.2,0.2,0.3,0.3l0,0C38.6,39.7,38.5,39.6,38.4,39.5L38.4,39.5z"/>
		<path fill="#33302E" d="M36,37.2c0.1,0,0.1,0.1,0.2,0.1C36.1,37.2,36.1,37.2,36,37.2L36,37.2z"/>
		<path fill="#33302E" d="M36,37.2c-0.1,0-0.1-0.1-0.2-0.1C35.9,37.1,35.9,37.1,36,37.2L36,37.2z"/>
		<path fill="#CA7D33" d="M27.6,21.5c-0.1,0.5-0.3,1.1-0.4,1.6c-0.2,0-0.3,0-0.5,0c-0.2-0.3-0.4-0.7-0.7-1c0-1.7,0-3.3,0-5
			c0.9-0.8,1-0.8,1.5,0.3C27.6,18.8,27.6,20.1,27.6,21.5z"/>
		<path fill="#CA7D33" d="M27.6,40.9c-0.1,0.1-0.3,0.2-0.3,0.3c-0.1,0.8-0.6,0.8-1.2,0.5c0-1.4,0-2.8,0-4.2c0.1,0,0.2-0.1,0.2-0.1
			c0.2-0.2,0.5-0.4,0.7-0.6c0.2,0.3,0.4,0.7,0.4,1c0.1,0.5,0.1,1.1,0.1,1.7C27.6,39.9,27.6,40.4,27.6,40.9z"/>
		<path fill="#CFA26E" d="M27.6,39.4c0-0.6,0-1.1-0.1-1.7c-0.1-0.4-0.3-0.7-0.4-1c-0.2,0.2-0.5,0.4-0.7,0.6
			c-0.1,0.1-0.1,0.1-0.2,0.1c-0.2-0.5-0.5-1.1,0.3-1.3c1-0.2,1.5,0.1,1.5,1C28,37.9,28.3,38.7,27.6,39.4z"/>
		<path fill="#CFA26E" d="M27.6,17.4c-0.5-1.1-0.6-1.1-1.5-0.3c-0.4-0.5-0.1-0.9,0.1-1.3c1.4,0,1.7,0.2,1.7,1.1
			C28,17.1,27.8,17.3,27.6,17.4z"/>
		<path fill="#CFA26E" d="M26.1,22.1c0.2,0.3,0.4,0.7,0.7,1C25.9,23.1,25.9,23.1,26.1,22.1z"/>
		<path fill="#DCDCDB" d="M29.6,49.4c-0.3-0.3-0.4-0.5,0-0.8C29.7,48.8,29.6,49.1,29.6,49.4z"/>
		<path fill="#C38A50" d="M33.2,50.9c0,1.1,0.1,2.3,0.1,3.4c0,1.5-0.1,3.1-0.2,4.6c0,0.2,0.1,0.5,0,0.6C33,59.7,32.7,60,32.5,60
			c-0.2,0-0.5-0.3-0.6-0.5c-0.1-0.1,0-0.3,0-0.5c0-2.8,0-5.6,0-8.4C32.3,50.7,32.7,50.8,33.2,50.9z"/>
		<path fill="#C38A50" d="M38.9,54.6c0,1.6,0.1,3.2,0.1,4.7c0,0.4,0,0.8-0.6,0.8s-0.5-0.5-0.5-0.8c-0.1-2.9-0.2-5.8-0.2-8.7v-0.1
			c0.3,0,0.7,0,1,0.1c0,0.9,0,1.8,0,2.7C38.7,53.8,38.8,54.2,38.9,54.6z"/>
		<path fill="#C98441" d="M31.8,49.1c1.9,0,3.9,0,5.8,0c0,0.1,0,0.2,0,0.3c-0.1,0.3-0.2,0.7-0.2,1l0,0c-1,0-2-0.1-2.9-0.1
			c0-0.1-0.1-0.3-0.1-0.3c-0.7-0.7-1.6-0.6-2.5-0.6C31.8,49.2,31.8,49.2,31.8,49.1z"/>
		<path fill="#CA7D33" d="M31.8,49.3c0.9,0,1.8-0.1,2.5,0.6c0.1,0.1,0.1,0.2,0.1,0.3c-0.4,0.2-1-0.1-1.2,0.6
			c-0.5-0.1-0.9-0.2-1.4-0.2c0-0.1-0.1-0.1-0.1-0.2C31.7,50.1,31.8,49.7,31.8,49.3z"/>
		<path fill="#C19569" d="M40,50.1c-0.1,0.1-0.2,0.2-0.3,0.3c-0.2,0-0.4,0-0.5,0c0-0.3,0-0.7,0-1c0-0.1,0-0.2,0-0.3
			c0.3,0,0.5,0,0.8,0c0,0.3,0,0.5,0,0.8C40,50,40,50,40,50.1z"/>
		<path fill="#C19569" d="M38.9,54.6c-0.1-0.4-0.2-0.8-0.2-1.2c0-0.9,0-1.8,0-2.7h0.1h0.1c0,0.3,0.1,0.5,0.1,0.8c0,0.5,0,1,0,1.6
			C38.9,53.6,38.9,54.1,38.9,54.6z"/>
		<path fill="#C1915B" d="M31.8,49.3c0,0.4,0,0.7,0,1.1c-0.6,0-0.8-0.3-0.8-0.9c0-0.6,0.4-0.5,0.8-0.5
			C31.8,49.2,31.8,49.2,31.8,49.3z"/>
		<path fill="#CA7D33" d="M39.2,49.1c0,0.1,0,0.2,0,0.3c-0.5,0-1,0-1.6,0c0-0.1,0-0.2,0-0.3C38.1,49.1,38.6,49.1,39.2,49.1z"/>
		<path fill="#C38A50" d="M37.6,50.7c-0.1-0.1-0.2-0.2-0.3-0.3l0,0C37.4,50.4,37.5,50.5,37.6,50.7L37.6,50.7z"/>
		<path fill="#EFD7AE" d="M20.9,22.1c0.6,0.6,0.6,1.4,0.7,2.2c-0.4,0-0.8,0-0.8-0.6C20.9,23.1,20.9,22.6,20.9,22.1z"/>
		<path fill="#EFD7AE" d="M21.7,25.2c0,0.2,0,0.4,0,0.5c-0.2,0-0.5,0-0.7,0C20.8,25.1,21.3,25.3,21.7,25.2z"/>
		<path fill="#F5EAD3" d="M38.9,51.5c0-0.3-0.1-0.5-0.1-0.8v-0.1c0.1-0.1,0.2-0.1,0.2-0.2l0,0c0.2,0,0.4,0,0.5,0
			C39.7,51,39.6,51.4,38.9,51.5z"/>
		<path fill="#F5EAD3" d="M40,50.1c0-0.1,0-0.2,0-0.3C40,50,40,50,40,50.1z"/>
		<path fill="#C98441" d="M45.7,22.8L45.7,22.8c-1.8,0.1-1.5-0.1-1.6-1.4c0-1.5,0-3,0-4.5c0-0.9,0.1-0.9,0.8-1
			c0.7,0,0.8,0.3,0.8,0.9C45.8,18.9,45.7,20.9,45.7,22.8C45.7,22.9,45.7,22.8,45.7,22.8z"/>
		<path fill="#EFD7AE" d="M53.2,28.9c-0.4,0.3-0.8,0.6-1.2,0.9l-0.1-0.1c0-2.7,0-5.4,0-8.1c0.5,0.2,0.9-0.1,1.1-0.5
			c0,2.1,0,4.1,0.1,6.2C53.2,27.8,53.2,28.3,53.2,28.9z"/>
		<path fill="#F5EAD3" d="M53.1,21c-0.3,0.4-0.6,0.7-1.1,0.5c0-0.5,0-1.1,0.1-1.6c0.4,0.1,0.9-0.2,1.2,0.4
			C53.2,20.6,53.2,20.8,53.1,21z"/>
		<path fill="#C19569" d="M49.5,25.3c-0.1,0-0.3-0.1-0.4-0.1c0.1-0.3,0.1-0.6,0.2-0.9c0.3,0,0.5,0,0.8,0c0,0.3,0,0.6,0,0.9
			C49.9,25.2,49.7,25.3,49.5,25.3z"/>
		<path fill="#EFD7AE" d="M49.5,25.3c0.2,0,0.4,0,0.6-0.1c0.1,0.4,0.1,0.8,0.2,1.1c-0.1,0-0.1,0-0.2,0C49.8,26,49.7,25.6,49.5,25.3z
			"/>
		<path fill="#C1915B" d="M52.1,19.5c-0.1,0-0.1,0-0.2,0c-0.1-0.2-0.2-0.4-0.3-0.5c0.1-0.1,0.1-0.1,0.2-0.2c0.1,0.1,0.2,0.1,0.3,0.2
			L52,19.1c0,0.1,0.1,0.1,0.1,0.2C52.1,19.3,52.1,19.4,52.1,19.5z"/>
		<path fill="#C19569" d="M50.1,24.2c0.1-0.1,0.1-0.2,0.2-0.3C50.2,24.1,50.2,24.1,50.1,24.2z"/>
		<path fill="#EFD7AE" d="M54.8,25.5c0.1,0,0.2,0,0.3,0c-0.1,0.5-0.2,1.1-0.2,1.6C54.8,26.6,54.8,26.1,54.8,25.5z"/>
		<path fill="#EFD7AE" d="M54.8,23.4c0.1,0,0.3,0.1,0.3,0.1c-0.1,0.5-0.2,1-0.3,1.5C54.8,24.5,54.8,24,54.8,23.4z"/>
		<path fill="#EFD7AE" d="M54.8,21.8c0.1,0.1,0.2,0.2,0.2,0.3c-0.1,0-0.2,0-0.2,0C54.8,22,54.8,21.9,54.8,21.8z"/>
		<path fill="#EFD7AE" d="M55.6,25.3c0-0.7,0-1.4,0-2.1c0-0.2,0.2-0.4,0.4-0.6c0,0.9-0.1,1.8-0.1,2.7C55.8,25.3,55.7,25.3,55.6,25.3
			z"/>
		<path fill="#C38A50" d="M17.9,28.9c-0.1,0.1-0.2,0.1-0.4,0.2c-0.2,0-0.4,0-0.6,0c-0.2-0.1-0.3-0.3-0.5-0.4c0-0.4-0.1-0.7-0.1-1.1
			c0-1.4-0.1-2.8-0.1-4.3c0-0.4,0.1-0.9,0.1-1.3c0.2-0.5-0.3-1.3,0.5-1.7l0.1,0.1c-0.5,1.3-0.3,2.7-0.2,4c0,1.3-0.4,2.7,0.5,4
			c0.7-1,0.6-1.8,0.4-2.7c-0.1-0.6-0.2-1.3-0.1-1.9c0.3-1.1,0.2-2.2-0.1-3.3c0.1,0,0.1-0.1,0.1-0.1c0.2,0.3,0.3,0.6,0.5,0.9
			c0,2,0,3.9-0.1,5.9C18,27.7,17.9,28.3,17.9,28.9z"/>
		<path fill="#EFD7AE" d="M16.3,22.1c0,0.4-0.1,0.9-0.1,1.3c-0.5,0-0.7,0.3-0.6,0.8c0,0.7,0,1.5,0,2.2c0,0.4-0.1,0.6-0.5,0.6
			c0-1.5,0-3,0-4.5C15.5,22.3,15.9,22.2,16.3,22.1z"/>
		<path fill="#EFD7AE" d="M13.8,27.1c-0.4-0.1-0.8-0.3-0.3-0.8C13.6,26.6,13.7,26.8,13.8,27.1z"/>
		<path fill="#EFD7AE" d="M13,24.2c0-0.4,0.1-0.6,0.5-0.6C13.6,24.1,13.4,24.3,13,24.2z"/>
		<path fill="#EFD7AE" d="M14.8,27.1c-0.1,0-0.2,0-0.3,0C14.7,27.1,14.8,27.1,14.8,27.1z"/>
		<path fill="#EFD7AE" d="M16.3,27.6c0,0.4,0.1,0.7,0.1,1.1c-0.1,0-0.2,0-0.3,0C16.2,28.4,16.3,28,16.3,27.6z"/>
		<path fill="#F5EAD3" d="M17,20.1c0.1-0.1,0.2-0.2,0.3-0.3c0.1,0.1,0.2,0.2,0.3,0.3C17.3,20.1,17.1,20.1,17,20.1z"/>
		<path fill="#C38A50" d="M17,20.1c0.2,0,0.4,0,0.5,0c0,0.1,0.1,0.2,0.1,0.3l-0.1,0.1c-0.2,0-0.3,0-0.5,0l-0.1-0.1
			C16.9,20.3,16.9,20.2,17,20.1z"/>
		<path fill="#FDFDFC" d="M52.1,18.9c-0.1-0.1-0.2-0.1-0.3-0.2c0-0.1,0-0.2-0.1-0.3C51.9,18.6,52,18.7,52.1,18.9L52.1,18.9
			L52.1,18.9z"/>
		<path fill="#F5EAD3" d="M52.1,19.5c0-0.1,0-0.2,0-0.2c0-0.1,0-0.2,0-0.3l0,0c0.2,0.1,0.3,0.2,0.5,0.3
			C52.4,19.3,52.3,19.4,52.1,19.5z"/>
		<path fill="#E2C6A4" d="M16.9,29.1c0.2,0,0.4,0,0.6,0C17.3,29.6,17.1,29.6,16.9,29.1z"/>
		<path fill="#D3792D" d="M37.6,50.6c-0.1-0.1-0.2-0.2-0.3-0.3c0.1-0.3,0.2-0.7,0.2-1c0.5,0,1,0,1.6,0c0,0.3,0,0.7,0,1l0,0
			c-0.1,0.1-0.2,0.1-0.2,0.2v0.1h-0.1h-0.1C38.3,50.6,38,50.6,37.6,50.6z"/>
		<path fill="#C19569" d="M38.9,50.6c0.1-0.1,0.2-0.1,0.2-0.2C39,50.5,39,50.5,38.9,50.6z"/>
		<path fill="#D3792D" d="M17,20.5c0.2,0,0.3,0,0.5,0c0.3,1.1,0.4,2.2,0.1,3.3c-0.1,0.6,0,1.3,0.1,1.9c0.1,0.9,0.3,1.8-0.4,2.7
			c-0.9-1.3-0.4-2.7-0.5-4C16.7,23.2,16.5,21.8,17,20.5z"/>
	</g>
</g>
<g id="Layer_2">
</g>
</svg>
