<?xml version="1.0" encoding="utf-8"?>
<!-- Generator: Adobe Illustrator 17.1.0, SVG Export Plug-In . SVG Version: 6.00 Build 0)  -->
<!DOCTYPE svg PUBLIC "-//W3C//DTD SVG 1.1//EN" "http://www.w3.org/Graphics/SVG/1.1/DTD/svg11.dtd">
<svg version="1.1" id="Layer_1" xmlns="http://www.w3.org/2000/svg" xmlns:xlink="http://www.w3.org/1999/xlink" x="0px" y="0px"
	 viewBox="0 0 572 407" enable-background="new 0 0 572 407" xml:space="preserve">
<path opacity="0.2" fill="#FFFFFF" d="M286.2,189.2c-1-3.4-2-7.6-2.9-10.9h-0.2c-0.8,3.4-1.7,7.7-2.6,10.9l-3.4,12h12.5L286.2,189.2
	z M286.2,189.2c-1-3.4-2-7.6-2.9-10.9h-0.2c-0.8,3.4-1.7,7.7-2.6,10.9l-3.4,12h12.5L286.2,189.2z M286.3,4.8
	C177.1,4.8,88.5,93.3,88.5,202.5s88.5,197.7,197.7,197.7S484,311.8,484,202.5S395.5,4.8,286.3,4.8z M180.2,225.3h-12.9v-56.6h12.9
	V225.3z M240.1,225.3l-0.8-21.7c-0.2-6.8-0.5-15-0.5-23.3h-0.3c-1.8,7.2-4.1,15.3-6.3,21.9l-6.9,22.1h-10l-6.1-21.9
	c-1.8-6.6-3.8-14.7-5.1-22.1H204c-0.3,7.6-0.6,16.4-1,23.4l-1,21.5h-11.8l3.6-56.6h17.1l5.5,18.9c1.8,6.6,3.5,13.6,4.8,20.3h0.2
	c1.6-6.6,3.5-14,5.4-20.3l6.1-18.8h16.7l3.1,56.6H240.1z M296,225.3l-4.4-14.5h-16.2l-4,14.5h-13.3l17.3-56.6h16.8l17.6,56.6H296z
	 M362.5,222.7c-4,1.3-11.4,3.2-18.9,3.2c-10.3,0-17.8-2.6-23-7.7c-5.2-4.9-8.1-12.3-8-20.6c0.1-18.8,13.8-29.6,32.4-29.6
	c7.3,0,12.9,1.4,15.7,2.8l-2.7,10.3c-3.1-1.4-7-2.4-13.2-2.4c-10.7,0-18.7,6-18.7,18.3c0,11.7,7.3,18.6,17.8,18.6
	c2.9,0,5.3-0.3,6.3-0.8v-11.9h-8.7v-10h21.1V222.7z M408.7,225.3h-36.1v-56.6h35v10.5h-22.1V191h20.8v10.4h-20.8v13.4h23.3V225.3z
	 M283.4,178.3h-0.2c-0.8,3.4-1.7,7.7-2.6,10.9l-3.4,12h12.5l-3.5-12C285.2,185.8,284.2,181.6,283.4,178.3z M286.2,189.2
	c-1-3.4-2-7.6-2.9-10.9h-0.2c-0.8,3.4-1.7,7.7-2.6,10.9l-3.4,12h12.5L286.2,189.2z M286.2,189.2c-1-3.4-2-7.6-2.9-10.9h-0.2
	c-0.8,3.4-1.7,7.7-2.6,10.9l-3.4,12h12.5L286.2,189.2z"/>
</svg>
