<?xml version="1.0" encoding="utf-8"?>
<!-- Generator: Adobe Illustrator 17.1.0, SVG Export Plug-In . SVG Version: 6.00 Build 0)  -->
<!DOCTYPE svg PUBLIC "-//W3C//DTD SVG 1.1//EN" "http://www.w3.org/Graphics/SVG/1.1/DTD/svg11.dtd">
<svg version="1.1" id="Layer_1" xmlns="http://www.w3.org/2000/svg" xmlns:xlink="http://www.w3.org/1999/xlink" x="0px" y="0px"
	 viewBox="0 0 72 72" enable-background="new 0 0 72 72" xml:space="preserve">
<path fill="#231F20" d="M60.1,24.6H11.9c-2.4,0-4.4-2-4.4-4.4v-0.1c0-2.4,2-4.4,4.4-4.4h48.1c2.4,0,4.4,2,4.4,4.4v0.1
	C64.5,22.6,62.5,24.6,60.1,24.6z"/>
<path fill="#231F20" d="M60.1,40.8H11.9c-2.4,0-4.4-2-4.4-4.4v-0.1c0-2.4,2-4.4,4.4-4.4h48.1c2.4,0,4.4,2,4.4,4.4v0.1
	C64.5,38.8,62.5,40.8,60.1,40.8z"/>
<path fill="#231F20" d="M60.1,57H11.9c-2.4,0-4.4-2-4.4-4.4v-0.1c0-2.4,2-4.4,4.4-4.4h48.1c2.4,0,4.4,2,4.4,4.4v0.1
	C64.5,55,62.5,57,60.1,57z"/>
</svg>
